<svg xmlns="http://www.w3.org/2000/svg" width="417" height="93" fill="none"><path fill="#000" d="M9.15 92.181c-1.522 0-2.902-.308-4.133-.929-1.232-.62-2.21-1.544-2.933-2.766C1.36 87.261 1 85.762 1 83.99c0-1.35.219-2.534.66-3.556.44-1.02 1.038-1.875 1.8-2.567a7.541 7.541 0 0 1 2.637-1.553 9.637 9.637 0 0 1 3.168-.518c.894 0 1.717.103 2.473.306.753.206 1.46.485 2.12.849l.093 2.897h-.235l-1.177-1.884a5.5 5.5 0 0 0-.518-.814 1.806 1.806 0 0 0-.707-.553 3.682 3.682 0 0 0-.695-.248 3.762 3.762 0 0 0-.859-.083c-.91 0-1.74.244-2.482.73-.747.485-1.342 1.293-1.789 2.412-.447 1.122-.672 2.656-.672 4.602 0 1.945.213 3.457.637 4.58.425 1.122 1 1.922 1.73 2.401.73.48 1.55.718 2.46.718.502 0 .904-.036 1.2-.106.3-.071.595-.177.894-.319.3-.125.524-.309.682-.553.157-.244.299-.505.424-.788l1.036-2.306h.235l-.071 3.367c-.66.344-1.396.627-2.213.85-.816.218-1.71.33-2.685.33l.003-.003Zm15.07 0c-1.194 0-2.249-.212-3.168-.636-.92-.425-1.634-1.094-2.142-2.014-.512-.92-.766-2.132-.766-3.637v-8.123c0-.595-.305-.987-.92-1.177l-.517-.142v-.234h6.522v.234l-.682.19c-.582.142-.872.534-.872 1.177v8.69c0 1.46.306 2.54.92 3.238.614.698 1.492 1.048 2.637 1.048s2.139-.37 2.837-1.106c.698-.736 1.048-1.781 1.048-3.132v-8.642c0-.315-.051-.591-.154-.836-.103-.244-.309-.405-.624-.482l-.589-.142v-.234h3.297v.234l-.637.165c-.3.064-.495.212-.589.447a2.228 2.228 0 0 0-.141.823v8.618c0 1.145-.229 2.145-.682 3.001a4.833 4.833 0 0 1-1.907 1.978c-.817.463-1.775.694-2.872.694Zm9.348-.424v-.235l.47-.164c.533-.174.8-.62.8-1.34V77.96c0-.315-.035-.566-.106-.752-.07-.19-.254-.344-.553-.47l-.611-.283v-.234h4.544l4.355 11.397 4.097-11.397H51.2v.234l-.376.142c-.3.11-.502.264-.611.46-.11.196-.164.45-.164.765v12.314c0 .315.038.556.119.73.077.174.267.322.566.447l.47.212v.235h-5.863v-.235l.495-.212c.299-.125.485-.273.566-.447.077-.174.119-.415.119-.73V84.84l.048-6.734-4.92 13.658h-1.177l-5.133-13.49.07 5.862v5.934c0 .344.052.623.155.836.103.212.302.366.601.46l.518.164v.234h-3.106l-.01-.006Zm20.556-.235.425-.164c.315-.125.53-.283.646-.47.12-.19.177-.44.177-.752V77.845c0-.328-.058-.589-.177-.778-.119-.19-.334-.338-.646-.447l-.425-.165v-.234h6.757c1.913 0 3.296.35 4.145 1.048.85.698 1.27 1.582 1.27 2.65 0 .8-.308 1.528-.929 2.177-.62.653-1.682 1.11-3.19 1.377 1.727.19 2.99.64 3.792 1.354.8.713 1.2 1.582 1.2 2.601 0 .502-.11 1.01-.329 1.518-.219.511-.592.978-1.119 1.402-.527.425-1.245.766-2.155 1.023-.91.26-2.064.39-3.46.39h-5.982v-.239Zm4.731-8.075h1.013c1.052 0 1.807-.245 2.274-.73.463-.486.694-1.335.694-2.544 0-1.21-.212-2.151-.636-2.685-.425-.534-1.116-.801-2.072-.801h-1.27v6.757l-.003.003Zm0 7.84h1.177c1.177 0 2.052-.315 2.624-.942.573-.627.859-1.608.859-2.942 0-1.255-.273-2.152-.823-2.686-.55-.534-1.454-.8-2.708-.8h-1.129v7.37Zm10.831.47v-.235l.54-.212c.267-.11.45-.254.554-.434.103-.18.154-.428.154-.743V77.842c0-.316-.042-.56-.129-.743-.086-.18-.28-.325-.575-.434l-.54-.213v-.234h11.278l.141 3.627h-.234l-1.013-2.213a2.946 2.946 0 0 0-.447-.681c-.158-.174-.393-.258-.708-.258h-4.239v6.805h2.519c.315 0 .553-.083.717-.247.164-.164.308-.39.434-.672l.47-.943h.234v4.239h-.235l-.47-.99a2.798 2.798 0 0 0-.446-.673c-.158-.164-.393-.247-.708-.247h-2.518v7.322h4.757c.315 0 .556-.083.73-.247.173-.164.315-.396.424-.695l.965-2.212h.235l-.142 3.627h-11.75l.002-.003Zm14.951-.235.495-.164c.316-.11.518-.254.611-.434.094-.18.142-.434.142-.765V77.845c0-.315-.042-.56-.129-.743-.086-.18-.28-.325-.575-.434l-.54-.213v-.234h6.734c1.852 0 3.273.35 4.26 1.048.988.698 1.483 1.67 1.483 2.907 0 .692-.26 1.383-.778 2.071-.518.692-1.335 1.226-2.447 1.602l3.274 6.5c.141.266.302.482.482.646.18.164.418.308.717.434l.306.119v.212h-4.216l-3.487-7.416h-1.601v5.815c0 .299.048.54.141.73.094.19.29.33.589.424l.566.212v.235h-6.027v-.238Zm5.863-7.65c1.129 0 1.946-.303 2.447-.907.502-.605.753-1.502.753-2.695 0-1.194-.235-2.107-.708-2.695-.47-.589-1.264-.885-2.376-.885h-1.248v7.181H90.5Zm10.339 7.885v-.235l.495-.19c.332-.125.538-.28.624-.46.087-.18.129-.427.129-.742V77.838c0-.315-.048-.566-.142-.752-.093-.187-.299-.338-.611-.447l-.495-.19v-.235h6.004v.235l-.424.19c-.299.11-.502.264-.611.46-.109.196-.164.45-.164.765v13.42h3.627c.583 0 1.01-.141 1.284-.424.273-.283.537-.692.788-1.226l.919-1.977h.235l-.212 4.097h-11.443l-.003.003Zm12.854 0v-.235l.589-.212c.315-.126.556-.28.73-.46.174-.18.315-.437.424-.765l4.85-13.916h2l4.779 14.009c.126.344.267.608.425.788.157.18.399.334.73.46l.283.093v.235h-5.982v-.235l.354-.119c.328-.125.531-.302.601-.53.071-.229.058-.5-.035-.814l-1.106-3.39h-5.226l-1.129 3.319c-.109.344-.145.62-.106.823.038.203.225.37.553.495l.518.213v.234h-3.248l-.004.007Zm3.58-5.557h4.92l-2.376-7.323-2.544 7.323Zm12.738 5.557v-.235l.778-.235c.283-.077.486-.231.611-.46.126-.228.187-.498.187-.813V78.687c-.174-.376-.309-.659-.412-.849a2.397 2.397 0 0 0-.341-.482 11.978 11.978 0 0 0-.517-.505l-.402-.402v-.235h4.167l7.818 10.668v-8.877a2.23 2.23 0 0 0-.154-.849c-.103-.25-.309-.414-.624-.495l-.778-.212v-.235h3.367v.235l-.637.212c-.283.093-.456.257-.517.495a3.123 3.123 0 0 0-.094.824v13.844h-1.318l-8.995-12.362v10.549c0 .315.048.582.141.8.093.22.29.377.589.47l.707.235v.234h-3.579l.003.007Zm16.72 0v-.235l.495-.19c.502-.202.753-.604.753-1.2v-12.29c0-.628-.251-1.03-.753-1.2l-.495-.19v-.234h6.216c1.663 0 3.097.308 4.297.929a6.617 6.617 0 0 1 2.778 2.66c.653 1.154.978 2.54.978 4.154 0 1.615-.354 3.052-1.058 4.217-.708 1.16-1.692 2.048-2.956 2.66-1.263.61-2.752.919-4.463.919h-5.792Zm4.779-.47h1.013c1.129 0 2.039-.225 2.73-.672.692-.447 1.196-1.2 1.518-2.26.322-1.059.482-2.515.482-4.368 0-1.852-.16-3.309-.482-4.367-.322-1.058-.82-1.814-1.495-2.26-.676-.448-1.563-.673-2.66-.673h-1.106v14.6Z"/><path fill="#000" fill-rule="evenodd" d="M70.831 5.222s9.812-4.86 17.84-4.152c8.026.705 14.956 2.165 17.288 16.534 2.344 14.43 1.743 20.98.55 29.065-2.248 15.257-7.48 16.849-7.48 16.849s-4.5 3.113-17.855-4.596c-7.079-4.087-12.584-7.68-22.445-18.475-9.818-10.748-6.66-17.087-2.228-23.818C60.932 9.9 70.83 5.222 70.83 5.222Zm7.017 40.885c2.32 1.164 4.914 1.75 7.78 1.75l.003-.007c1.83 0 3.515-.206 5.052-.621 1.537-.412 2.927-.946 4.168-1.595l.132-6.339h-.444l-1.952 4.345c-.238.534-.502 1.03-.797 1.486-.296.46-.724.807-1.287 1.042a8.471 8.471 0 0 1-1.685.598c-.563.132-1.315.2-2.26.2-1.715 0-3.259-.451-4.632-1.351-1.373-.9-2.46-2.41-3.258-4.522-.797-2.113-1.196-4.956-1.196-8.622 0-3.666.421-6.554 1.264-8.667.843-2.113 1.965-3.628 3.37-4.544 1.402-.914 2.962-1.373 4.676-1.373.65 0 1.19.051 1.618.154.43.106.865.26 1.309.466.53.238.974.586 1.328 1.042.354.46.678.971.974 1.531l2.216 3.547h.444l-.177-5.45a18.317 18.317 0 0 0-3.99-1.596c-1.42-.383-2.97-.575-4.654-.575-2.1 0-4.088.324-5.963.974a14.305 14.305 0 0 0-4.965 2.926c-1.431 1.3-2.563 2.91-3.39 4.83-.826 1.92-1.241 4.153-1.241 6.693 0 3.342.678 6.162 2.039 8.468 1.357 2.306 3.2 4.042 5.518 5.21Z" clip-rule="evenodd"/><path fill="#000" d="M34.246 67.248h-2.949v5.249h-1.022v-5.249h-2.95v-.92h6.921v.92Zm8.188 5.249h-1.022v-2.744h-4.943v2.744h-1.023v-6.172h1.023v2.505h4.943v-2.505h1.022v6.172Zm8.523 0h-6.461v-6.172h6.22v.92h-5.198v1.585h3.615v.92h-3.615v1.824h5.439v.923Z"/><path stroke="#000" stroke-miterlimit="10" stroke-width=".5" d="M9.15 92.181c-1.522 0-2.902-.308-4.133-.929-1.232-.62-2.21-1.544-2.933-2.766C1.36 87.261 1 85.762 1 83.99c0-1.35.219-2.534.66-3.556.44-1.02 1.038-1.875 1.8-2.567a7.541 7.541 0 0 1 2.637-1.553 9.637 9.637 0 0 1 3.168-.518c.894 0 1.717.103 2.473.306.753.206 1.46.485 2.12.849l.093 2.897h-.235l-1.177-1.884a5.5 5.5 0 0 0-.518-.814 1.806 1.806 0 0 0-.707-.553 3.682 3.682 0 0 0-.695-.248 3.762 3.762 0 0 0-.859-.083c-.91 0-1.74.244-2.482.73-.747.485-1.342 1.293-1.789 2.412-.447 1.122-.672 2.656-.672 4.602 0 1.945.213 3.457.637 4.58.425 1.122 1 1.922 1.73 2.401.73.48 1.55.718 2.46.718.502 0 .904-.036 1.2-.106.3-.071.595-.177.894-.319.3-.125.524-.309.682-.553.157-.244.299-.505.424-.788l1.036-2.306h.235l-.071 3.367c-.66.344-1.396.627-2.213.85-.816.218-1.71.33-2.685.33l.003-.003Zm15.07 0c-1.194 0-2.249-.212-3.168-.636-.92-.425-1.634-1.094-2.142-2.014-.512-.92-.766-2.132-.766-3.637v-8.123c0-.595-.305-.987-.92-1.177l-.517-.142v-.234h6.522v.234l-.682.19c-.582.142-.872.534-.872 1.177v8.69c0 1.46.306 2.54.92 3.238.614.698 1.492 1.048 2.637 1.048s2.139-.37 2.837-1.106c.698-.736 1.048-1.781 1.048-3.132v-8.642c0-.315-.051-.591-.154-.836-.103-.244-.309-.405-.624-.482l-.589-.142v-.234h3.297v.234l-.637.165c-.3.064-.495.212-.589.447a2.228 2.228 0 0 0-.141.823v8.618c0 1.145-.229 2.145-.682 3.001a4.833 4.833 0 0 1-1.907 1.978c-.817.463-1.775.694-2.872.694Zm9.348-.424v-.235l.47-.164c.533-.174.8-.62.8-1.34V77.96c0-.315-.035-.566-.106-.752-.07-.19-.254-.344-.553-.47l-.611-.283v-.234h4.544l4.355 11.397 4.097-11.397H51.2v.234l-.376.142c-.3.11-.502.264-.611.46-.11.196-.164.45-.164.765v12.314c0 .315.038.556.119.73.077.174.267.322.566.447l.47.212v.235h-5.863v-.235l.495-.212c.299-.125.485-.273.566-.447.077-.174.119-.415.119-.73V84.84l.048-6.734-4.92 13.658h-1.177l-5.133-13.49.07 5.862v5.934c0 .344.052.623.155.836.103.212.302.366.601.46l.518.164v.234h-3.106l-.01-.006Zm20.556-.235.425-.164c.315-.125.53-.283.646-.47.12-.19.177-.44.177-.752V77.845c0-.328-.058-.589-.177-.778-.119-.19-.334-.338-.646-.447l-.425-.165v-.234h6.757c1.913 0 3.296.35 4.145 1.048.85.698 1.27 1.582 1.27 2.65 0 .8-.308 1.528-.929 2.177-.62.653-1.682 1.11-3.19 1.377 1.727.19 2.99.64 3.792 1.354.8.713 1.2 1.582 1.2 2.601 0 .502-.11 1.01-.329 1.518-.219.511-.592.978-1.119 1.402-.527.425-1.245.766-2.155 1.023-.91.26-2.064.39-3.46.39h-5.982v-.239Zm4.731-8.075h1.013c1.052 0 1.807-.245 2.274-.73.463-.486.694-1.335.694-2.544 0-1.21-.212-2.151-.636-2.685-.425-.534-1.116-.801-2.072-.801h-1.27v6.757l-.003.003Zm0 7.84h1.177c1.177 0 2.052-.315 2.624-.942.573-.627.859-1.608.859-2.942 0-1.255-.273-2.152-.823-2.686-.55-.534-1.454-.8-2.708-.8h-1.129v7.37Zm10.831.47v-.235l.54-.212c.267-.11.45-.254.554-.434.103-.18.154-.428.154-.743V77.842c0-.316-.042-.56-.129-.743-.086-.18-.28-.325-.575-.434l-.54-.213v-.234h11.278l.141 3.627h-.234l-1.013-2.213a2.946 2.946 0 0 0-.447-.681c-.158-.174-.393-.258-.708-.258h-4.239v6.805h2.519c.315 0 .553-.083.717-.247.164-.164.308-.39.434-.672l.47-.943h.234v4.239h-.235l-.47-.99a2.798 2.798 0 0 0-.446-.673c-.158-.164-.393-.247-.708-.247h-2.518v7.322h4.757c.315 0 .556-.083.73-.247.173-.164.315-.396.424-.695l.965-2.212h.235l-.142 3.627h-11.75l.002-.003Zm14.951-.235.495-.164c.316-.11.518-.254.611-.434.094-.18.142-.434.142-.765V77.845c0-.315-.042-.56-.129-.743-.086-.18-.28-.325-.575-.434l-.54-.213v-.234h6.734c1.852 0 3.273.35 4.26 1.048.988.698 1.483 1.67 1.483 2.907 0 .692-.26 1.383-.778 2.071-.518.692-1.335 1.226-2.447 1.602l3.274 6.5c.141.266.302.482.482.646.18.164.418.308.717.434l.306.119v.212h-4.216l-3.487-7.416h-1.601v5.815c0 .299.048.54.141.73.094.19.29.33.589.424l.566.212v.235h-6.027v-.238Zm5.863-7.65c1.129 0 1.946-.303 2.447-.907.502-.605.753-1.502.753-2.695 0-1.194-.235-2.107-.708-2.695-.47-.589-1.264-.885-2.376-.885h-1.248v7.181H90.5Zm10.339 7.885v-.235l.495-.19c.332-.125.538-.28.624-.46.087-.18.129-.427.129-.742V77.838c0-.315-.048-.566-.142-.752-.093-.187-.299-.338-.611-.447l-.495-.19v-.235h6.004v.235l-.424.19c-.299.11-.502.264-.611.46-.109.196-.164.45-.164.765v13.42h3.627c.583 0 1.01-.141 1.284-.424.273-.283.537-.692.788-1.226l.919-1.977h.235l-.212 4.097h-11.443l-.003.003Zm12.854 0v-.235l.589-.212c.315-.126.556-.28.73-.46.174-.18.315-.437.424-.765l4.85-13.916h2l4.779 14.009c.126.344.267.608.425.788.157.18.399.334.73.46l.283.093v.235h-5.982v-.235l.354-.119c.328-.125.531-.302.601-.53.071-.229.058-.5-.035-.814l-1.106-3.39h-5.226l-1.129 3.319c-.109.344-.145.62-.106.823.038.203.225.37.553.495l.518.213v.234h-3.248l-.004.007Zm3.58-5.557h4.92l-2.376-7.323-2.544 7.323Zm12.738 5.557v-.235l.778-.235c.283-.077.486-.231.611-.46.126-.228.187-.498.187-.813V78.687c-.174-.376-.309-.659-.412-.849a2.397 2.397 0 0 0-.341-.482 11.978 11.978 0 0 0-.517-.505l-.402-.402v-.235h4.167l7.818 10.668v-8.877a2.23 2.23 0 0 0-.154-.849c-.103-.25-.309-.414-.624-.495l-.778-.212v-.235h3.367v.235l-.637.212c-.283.093-.456.257-.517.495a3.123 3.123 0 0 0-.094.824v13.844h-1.318l-8.995-12.362v10.549c0 .315.048.582.141.8.093.22.29.377.589.47l.707.235v.234h-3.579l.003.007Zm16.72 0v-.235l.495-.19c.502-.202.753-.604.753-1.2v-12.29c0-.628-.251-1.03-.753-1.2l-.495-.19v-.234h6.216c1.663 0 3.097.308 4.297.929a6.617 6.617 0 0 1 2.778 2.66c.653 1.154.978 2.54.978 4.154 0 1.615-.354 3.052-1.058 4.217-.708 1.16-1.692 2.048-2.956 2.66-1.263.61-2.752.919-4.463.919h-5.792Zm4.779-.47h1.013c1.129 0 2.039-.225 2.73-.672.692-.447 1.196-1.2 1.518-2.26.322-1.059.482-2.515.482-4.368 0-1.852-.16-3.309-.482-4.367-.322-1.058-.82-1.814-1.495-2.26-.676-.448-1.563-.673-2.66-.673h-1.106v14.6Z"/><path stroke="#000" stroke-miterlimit="10" stroke-width=".5" d="M70.831 5.222s9.812-4.86 17.84-4.152c8.026.705 14.956 2.165 17.288 16.534 2.344 14.43 1.743 20.98.55 29.065-2.248 15.257-7.48 16.849-7.48 16.849s-4.5 3.113-17.855-4.596c-7.079-4.087-12.584-7.68-22.445-18.475-9.818-10.748-6.66-17.087-2.228-23.818C60.932 9.9 70.83 5.222 70.83 5.222Zm7.017 40.885c2.32 1.164 4.914 1.75 7.78 1.75l.003-.007c1.83 0 3.515-.206 5.052-.621 1.537-.412 2.927-.946 4.168-1.595l.132-6.339h-.444l-1.952 4.345c-.238.534-.502 1.03-.797 1.486-.296.46-.724.807-1.287 1.042a8.471 8.471 0 0 1-1.685.598c-.563.132-1.315.2-2.26.2-1.715 0-3.259-.451-4.632-1.351-1.373-.9-2.46-2.41-3.258-4.522-.797-2.113-1.196-4.956-1.196-8.622 0-3.666.421-6.554 1.264-8.667.843-2.113 1.965-3.628 3.37-4.544 1.402-.914 2.962-1.373 4.676-1.373.65 0 1.19.051 1.618.154.43.106.865.26 1.309.466.53.238.974.586 1.328 1.042.354.46.678.971.974 1.531l2.216 3.547h.444l-.177-5.45a18.317 18.317 0 0 0-3.99-1.596c-1.42-.383-2.97-.575-4.654-.575-2.1 0-4.088.324-5.963.974a14.305 14.305 0 0 0-4.965 2.926c-1.431 1.3-2.563 2.91-3.39 4.83-.826 1.92-1.241 4.153-1.241 6.693 0 3.342.678 6.162 2.039 8.468 1.357 2.306 3.2 4.042 5.518 5.21Z" clip-rule="evenodd"/><path stroke="#000" stroke-miterlimit="10" stroke-width=".5" d="M34.246 67.248h-2.949v5.249h-1.022v-5.249h-2.95v-.92h6.921v.92Zm8.188 5.249h-1.022v-2.744h-4.943v2.744h-1.023v-6.172h1.023v2.505h4.943v-2.505h1.022v6.172Zm8.523 0h-6.461v-6.172h6.22v.92h-5.198v1.585h3.615v.92h-3.615v1.824h5.439v.923Z"/><path fill="#000" d="M270.315 34.493c-2.995-.715-5.582-1.334-5.582-2.985 0-1.65 1.466-2.703 3.921-2.703 3.135 0 6.162 1.14 8.305 3.123l.177.164 3.706-4.883-.145-.133c-2.952-2.727-6.813-4.11-11.477-4.11-6.512 0-11.24 3.813-11.24 9.063 0 6.661 6.013 8.09 10.845 9.236 3.157.75 5.885 1.396 5.885 3.316 0 1.496-1.495 3.008-4.835 3.008-4.683 0-7.699-2.415-9.078-3.855l-.183-.19L257 48.613l.128.13c3.014 3.064 7.317 4.684 12.44 4.684 7.421 0 11.85-3.568 11.85-9.544 0-6.74-6.156-8.21-11.103-9.392v.002Zm72.423 6.384c0 4.148-2.46 6.625-6.58 6.625s-6.623-2.477-6.623-6.625V23.402h-6.709v17.694c0 7.839 4.86 12.333 13.332 12.333 8.472 0 13.332-4.511 13.332-12.377v-17.65h-6.752v17.475Zm33.644.34-13.134-17.815h-6.687v29.504h6.621V34.397l13.526 18.509h6.297V23.402h-6.623v17.814Zm24.977-17.815h-11.676v29.504h11.676c9.355 0 15.641-5.92 15.641-14.731 0-8.812-6.284-14.773-15.641-14.773Zm0 23.62h-5.054V29.285h5.054c5.483 0 8.888 3.407 8.888 8.891 0 5.485-3.654 8.848-8.888 8.848v-.002ZM293.446 34.209a8.965 8.965 0 0 1 2.303-3.301l1.929 1.929a6.58 6.58 0 0 0-2.384 2.277 6.78 6.78 0 0 0-1.009 3.367 7.188 7.188 0 0 0 .84 3.591 7.578 7.578 0 0 0 2.63 2.833 7.934 7.934 0 0 1-3.204-2.458 8.196 8.196 0 0 1-1.635-3.883 8.505 8.505 0 0 1 .528-4.355"/><path fill="#000" d="M291.783 32.459a11.488 11.488 0 0 1 3.631-4.124l1.967 1.967a9.035 9.035 0 0 0-3.801 3.15 9.304 9.304 0 0 0-1.629 4.956 9.686 9.686 0 0 0 1.328 5.234 10.08 10.08 0 0 0 4.049 3.84 10.402 10.402 0 0 1-4.619-3.46 10.701 10.701 0 0 1-2.128-5.56 11.036 11.036 0 0 1 1.202-6.003Z"/><path fill="#000" d="M290.12 30.706a14.055 14.055 0 0 1 4.961-4.946l2.004 2.005a11.62 11.62 0 0 0-5.219 4.022 11.898 11.898 0 0 0-2.25 6.544 12.275 12.275 0 0 0 1.817 6.879 12.646 12.646 0 0 0 5.468 4.844c-2.363-.833-4.491-2.403-6.036-4.46a13.328 13.328 0 0 1-2.621-7.237 13.639 13.639 0 0 1 1.876-7.652"/><path fill="#000" d="M288.457 28.954a16.622 16.622 0 0 1 6.291-5.768l2.042 2.042a14.244 14.244 0 0 0-6.638 4.895 14.5 14.5 0 0 0-2.871 8.134 14.882 14.882 0 0 0 2.306 8.524 15.259 15.259 0 0 0 6.887 5.85c-2.93-.996-5.57-2.921-7.451-5.46-1.893-2.531-3.003-5.684-3.114-8.914a16.24 16.24 0 0 1 2.55-9.3m21.825 12.649a8.954 8.954 0 0 1-2.303 3.3l-1.929-1.928a6.58 6.58 0 0 0 2.384-2.278 6.78 6.78 0 0 0 1.009-3.367 7.188 7.188 0 0 0-.84-3.59 7.578 7.578 0 0 0-2.63-2.833 7.933 7.933 0 0 1 3.204 2.458 8.187 8.187 0 0 1 1.635 3.883 8.505 8.505 0 0 1-.528 4.355"/><path fill="#000" d="M311.947 43.358a11.49 11.49 0 0 1-3.631 4.124l-1.966-1.967a9.04 9.04 0 0 0 3.8-3.15 9.313 9.313 0 0 0 1.63-4.956 9.696 9.696 0 0 0-1.329-5.235 10.092 10.092 0 0 0-4.049-3.839 10.396 10.396 0 0 1 4.619 3.46 10.7 10.7 0 0 1 2.128 5.559 11.036 11.036 0 0 1-1.202 6.004Z"/><path fill="#000" d="M313.61 45.11a14.055 14.055 0 0 1-4.961 4.946l-2.004-2.004a11.62 11.62 0 0 0 5.219-4.022 11.89 11.89 0 0 0 2.25-6.544 12.274 12.274 0 0 0-1.817-6.88 12.646 12.646 0 0 0-5.468-4.844c2.364.834 4.491 2.404 6.034 4.46a13.328 13.328 0 0 1 2.621 7.237 13.638 13.638 0 0 1-1.876 7.653"/><path fill="#000" d="M315.273 46.86a16.622 16.622 0 0 1-6.291 5.77l-2.042-2.043a14.238 14.238 0 0 0 6.638-4.895c1.737-2.308 2.76-5.176 2.873-8.135a14.882 14.882 0 0 0-2.306-8.524 15.258 15.258 0 0 0-6.887-5.85c2.93.996 5.568 2.922 7.451 5.46 1.893 2.532 3.003 5.685 3.114 8.914a16.24 16.24 0 0 1-2.55 9.302M257.056 65.804c0-2.624 1.957-4.416 4.414-4.416 1.792 0 2.853.896 3.492 1.92l-1.279.653a2.561 2.561 0 0 0-2.213-1.24c-1.625 0-2.878 1.293-2.878 3.083 0 1.79 1.253 3.085 2.878 3.085.984 0 1.805-.525 2.213-1.243l1.279.653c-.652 1.024-1.7 1.92-3.492 1.92-2.455 0-4.414-1.791-4.414-4.415Zm10.672 2.622-.626 1.637h-1.637l3.351-8.535h1.868l3.351 8.535h-1.637l-.626-1.637h-4.044Zm.422-1.318h3.198l-1.599-4.312-1.599 4.312Zm7.074-5.578h5.846v1.317h-4.35v2.213h4.26v1.318h-4.26v3.685h-1.498v-8.535l.002.002Zm7.447 0h5.846v1.317h-4.35v2.213h4.26v1.318h-4.26v2.368h4.35v1.317h-5.846v-8.535.002Zm11.278 4.496a1.456 1.456 0 0 1 2.489-1.031 1.447 1.447 0 0 1-1.031 2.477 1.456 1.456 0 0 1-1.458-1.446Zm8.284-4.496h4.196c1.559 0 2.43.973 2.43 2.175 0 1.075-.69 1.792-1.484 1.958.909.14 1.65 1.05 1.65 2.098 0 1.318-.882 2.304-2.482 2.304h-4.31V61.53Zm3.889 3.53c.768 0 1.202-.46 1.202-1.1 0-.64-.434-1.113-1.202-1.113h-2.391v2.213h2.391Zm.064 3.686c.818 0 1.306-.448 1.306-1.19 0-.64-.448-1.178-1.306-1.178h-2.455v2.368h2.455Zm5.962-.32-.626 1.637h-1.637l3.351-8.535h1.868l3.351 8.535h-1.637l-.626-1.637h-4.044Zm.422-1.318h3.198l-1.599-4.312-1.599 4.312Zm10.056-.23h-1.484v3.187h-1.498V61.53h3.748c1.688 0 2.788 1.1 2.788 2.674 0 1.574-.997 2.341-2.02 2.509l2.084 3.352h-1.727l-1.893-3.186h.002Zm.563-4.031h-2.047v2.712h2.047c.845 0 1.458-.538 1.458-1.357s-.613-1.357-1.458-1.357v.002Zm8.226 3.179a1.456 1.456 0 0 1 2.489-1.031 1.447 1.447 0 0 1-1.031 2.477 1.456 1.456 0 0 1-1.458-1.446Zm8.726 1.684a3.682 3.682 0 0 0 2.7 1.179c1.191 0 1.714-.603 1.714-1.165 0-.768-.909-.998-1.945-1.267-1.395-.346-3.031-.755-3.031-2.56 0-1.408 1.241-2.495 3.108-2.495 1.33 0 2.404.421 3.198 1.19l-.856 1.111c-.666-.666-1.573-.973-2.468-.973-.896 0-1.445.422-1.445 1.062 0 .64.869.882 1.881 1.138 1.408.358 3.084.795 3.084 2.649 0 1.42-.997 2.637-3.3 2.637-1.573 0-2.711-.55-3.468-1.357l.832-1.152-.004.003Zm11.321-6.18c1.791 0 2.788 1.229 2.788 2.674 0 1.446-1.01 2.675-2.788 2.675h-2.252v3.186h-1.498V61.53h3.75Zm-.203 1.317h-2.047v2.712h2.047c.845 0 1.458-.538 1.458-1.357s-.613-1.357-1.458-1.357v.002Zm8.28-1.459c2.559 0 4.363 1.87 4.363 4.416 0 2.546-1.804 4.415-4.363 4.415s-4.363-1.869-4.363-4.415c0-2.547 1.804-4.416 4.363-4.416Zm0 1.331c-1.727 0-2.828 1.318-2.828 3.083 0 1.765 1.101 3.085 2.828 3.085 1.728 0 2.828-1.331 2.828-3.085s-1.114-3.083-2.828-3.083Zm9.047 4.16h-1.485v3.186h-1.498V61.53h3.748c1.688 0 2.789 1.1 2.789 2.674 0 1.574-.998 2.341-2.021 2.509l2.085 3.352h-1.728l-1.892-3.186h.002Zm.562-4.032h-2.047v2.712h2.047c.845 0 1.458-.538 1.458-1.357s-.613-1.357-1.458-1.357v.002Zm6.653 0h-2.583V61.53h6.664v1.317h-2.583v7.218h-1.498v-7.218Zm5.821 4.863a3.682 3.682 0 0 0 2.7 1.179c1.191 0 1.714-.603 1.714-1.165 0-.768-.908-.998-1.945-1.267-1.394-.346-3.031-.755-3.031-2.56 0-1.408 1.242-2.495 3.108-2.495 1.33 0 2.405.421 3.199 1.19l-.857 1.111c-.666-.666-1.572-.973-2.468-.973-.896 0-1.445.422-1.445 1.062 0 .64.869.882 1.881 1.138 1.408.358 3.084.795 3.084 2.649 0 1.42-.997 2.637-3.3 2.637-1.573 0-2.711-.55-3.468-1.357l.832-1.152-.004.003Zm11.118-6.18h4.196c1.56 0 2.431.973 2.431 2.175 0 1.075-.691 1.792-1.485 1.958.909.14 1.65 1.05 1.65 2.098 0 1.318-.882 2.304-2.481 2.304h-4.311V61.53Zm3.889 3.53c.768 0 1.202-.46 1.202-1.1 0-.64-.434-1.113-1.202-1.113h-2.391v2.213h2.391Zm.064 3.686c.819 0 1.306-.448 1.306-1.19 0-.64-.448-1.178-1.306-1.178h-2.455v2.368h2.455Zm5.964-.32-.626 1.637h-1.637l3.351-8.535h1.868l3.351 8.535h-1.637l-.626-1.637h-4.044Zm.42-1.318h3.199l-1.6-4.312-1.599 4.312Zm10.057-.23h-1.485v3.187h-1.498V61.53h3.748c1.688 0 2.789 1.1 2.789 2.674 0 1.574-.998 2.341-2.021 2.509l2.085 3.352h-1.728l-1.892-3.186h.002Zm.562-4.031h-2.047v2.712h2.047c.845 0 1.458-.538 1.458-1.357s-.613-1.357-1.458-1.357v.002Z"/></svg>