<?xml version="1.0" encoding="UTF-8" ?>
<!DOCTYPE svg PUBLIC "-//W3C//DTD SVG 1.1//EN" "http://www.w3.org/Graphics/SVG/1.1/DTD/svg11.dtd">
<svg width="399.75pt" height="141pt" viewBox="0 0 1800 633" version="1.1" xmlns="http://www.w3.org/2000/svg">
<g id="#000000ff">
<path fill="#000000" opacity="1.00" d=" M 1352.69 0.00 L 1353.57 0.00 C 1354.98 57.27 1352.92 114.62 1354.49 171.87 C 1353.77 182.71 1365.97 184.14 1371.71 190.64 C 1349.26 193.65 1326.40 191.70 1303.83 191.40 C 1303.49 189.94 1303.15 188.49 1302.84 187.04 C 1308.78 184.55 1316.46 182.64 1318.62 175.70 C 1321.35 158.96 1319.64 141.88 1320.03 125.00 C 1319.49 95.13 1320.98 65.23 1319.46 35.39 C 1320.01 24.53 1307.96 21.77 1300.88 16.60 C 1317.54 9.24 1336.02 7.47 1352.69 0.00 Z" />
<path fill="#000000" opacity="1.00" d=" M 0.00 15.00 C 59.33 14.99 118.67 15.03 178.00 14.96 C 198.34 15.25 219.41 14.84 238.74 22.18 C 250.26 26.99 261.10 34.26 268.56 44.41 C 281.19 60.23 285.61 81.12 285.08 100.99 C 285.00 146.00 284.91 191.00 285.11 236.00 C 285.05 244.73 285.12 253.49 284.19 262.19 C 282.65 278.32 274.29 293.53 262.01 304.02 C 250.85 313.43 237.14 319.38 222.96 322.54 C 241.57 326.17 260.30 334.58 271.87 350.14 C 283.62 365.31 286.34 385.34 286.03 403.98 C 285.81 479.24 286.37 554.50 285.72 629.76 C 250.15 630.27 214.58 629.90 179.01 630.00 C 179.00 562.33 178.95 494.66 179.06 426.99 C 178.87 414.63 179.04 402.05 176.05 389.96 C 173.33 381.96 167.18 374.65 158.89 372.21 C 145.39 367.71 130.98 369.20 117.01 368.85 C 116.79 455.81 117.39 542.76 116.71 629.71 C 77.81 630.34 38.90 629.85 0.00 630.00 L 0.00 15.00 M 117.01 106.98 C 116.99 164.01 116.99 221.04 117.01 278.07 C 133.90 277.37 153.45 280.96 167.88 269.90 C 176.45 262.60 177.98 250.39 178.77 239.88 C 179.42 217.93 178.78 195.96 179.05 174.00 C 178.90 159.14 179.79 144.03 176.42 129.44 C 174.13 119.55 165.82 111.44 155.96 109.18 C 143.29 105.53 129.98 107.32 117.01 106.98 Z" />
<path fill="#000000" opacity="1.00" d=" M 391.04 15.06 C 441.67 14.95 492.29 14.98 542.92 15.04 C 568.02 189.86 593.35 364.64 618.42 539.47 C 622.59 569.65 627.63 599.71 631.20 629.97 C 591.19 630.01 551.18 630.04 511.18 629.96 C 507.67 596.99 504.42 564.00 500.89 531.04 C 478.27 530.96 455.66 530.98 433.04 531.02 C 429.48 563.89 426.64 596.85 422.64 629.67 C 382.67 630.39 342.70 629.85 302.74 629.98 C 307.11 592.99 313.39 556.24 318.31 519.32 C 335.65 398.65 353.05 277.99 370.36 157.32 C 377.52 109.94 383.61 62.39 391.04 15.06 M 461.99 226.00 C 454.93 296.98 448.38 368.02 441.10 438.98 C 458.36 439.02 475.62 439.02 492.88 438.97 C 483.73 352.26 476.32 265.36 467.13 178.65 C 464.59 194.34 463.63 210.21 461.99 226.00 Z" />
<path fill="#000000" opacity="1.00" d=" M 771.14 16.10 C 798.09 16.03 825.03 15.75 851.98 16.17 C 868.69 16.89 886.72 19.83 899.64 31.39 C 912.75 42.22 916.32 62.71 908.46 77.55 C 896.83 98.06 871.29 103.03 849.70 103.42 C 863.16 104.80 877.51 106.48 888.02 115.98 C 905.43 132.72 910.16 157.74 924.27 176.76 C 928.78 183.10 936.94 183.30 943.16 186.91 C 945.22 187.95 943.96 190.39 943.92 192.15 C 925.97 191.99 908.02 191.97 890.08 191.98 C 879.83 169.93 869.28 148.02 858.99 125.99 C 855.53 119.87 852.22 112.49 845.38 109.56 C 838.83 107.35 831.82 107.24 825.03 106.59 C 825.16 126.72 824.57 146.86 825.14 166.99 C 825.60 171.83 826.39 177.32 830.34 180.63 C 834.77 183.70 840.23 184.71 845.15 186.81 C 844.96 188.44 844.79 190.07 844.62 191.70 C 820.72 192.06 796.81 192.27 772.93 191.98 C 769.94 192.20 768.52 189.26 766.89 187.33 C 772.25 184.59 778.65 184.12 783.59 180.59 C 788.52 176.65 787.75 169.60 788.01 164.03 C 788.10 124.02 787.89 84.00 788.10 43.98 C 788.01 38.93 788.42 32.55 784.22 28.82 C 779.06 25.16 772.75 23.78 767.34 20.59 C 768.59 19.09 769.87 17.60 771.14 16.10 M 825.01 22.80 C 824.98 48.57 824.99 74.34 825.01 100.12 C 834.33 99.95 843.82 100.39 852.92 97.91 C 860.90 95.34 866.92 88.58 869.81 80.85 C 874.19 68.68 873.06 55.31 869.99 43.00 C 867.76 34.93 861.56 28.38 853.92 25.09 C 844.52 22.45 834.65 23.06 825.01 22.80 Z" />
<path fill="#000000" opacity="1.00" d=" M 987.44 73.49 C 1007.99 70.94 1030.63 76.35 1045.00 92.00 C 1066.57 114.40 1066.62 153.69 1045.24 176.25 C 1028.43 194.19 1001.16 199.33 977.99 193.00 C 955.50 187.63 937.22 167.66 934.49 144.57 C 933.21 132.30 933.78 119.37 939.08 108.03 C 947.21 88.70 966.84 75.63 987.44 73.49 M 991.45 79.60 C 982.02 81.19 976.58 90.43 973.85 98.87 C 968.64 115.87 969.74 134.03 970.54 151.56 C 971.68 162.06 973.51 173.26 980.26 181.77 C 988.59 192.30 1006.08 191.45 1014.68 181.71 C 1024.54 167.64 1025.45 149.57 1025.08 132.99 C 1024.60 118.56 1024.36 103.00 1016.85 90.16 C 1011.78 81.60 1001.30 76.55 991.45 79.60 Z" />
<path fill="#000000" opacity="1.00" d=" M 1195.86 93.89 C 1213.35 79.75 1236.02 71.15 1258.71 73.29 C 1269.55 74.58 1280.61 82.09 1282.43 93.42 C 1284.15 119.86 1282.06 146.40 1283.24 172.86 C 1283.54 176.08 1283.65 179.71 1286.19 182.05 C 1292.65 181.90 1297.36 174.54 1304.07 177.11 C 1295.45 189.26 1279.18 199.48 1263.97 194.02 C 1256.66 191.84 1253.42 184.60 1250.50 178.26 C 1238.07 185.90 1225.22 195.01 1209.95 194.86 C 1198.53 196.02 1186.80 188.43 1183.62 177.37 C 1182.81 171.65 1181.91 165.24 1185.05 160.02 C 1191.02 149.22 1202.68 143.53 1213.33 138.34 C 1225.75 132.94 1238.22 127.62 1250.83 122.64 C 1249.94 108.40 1253.99 93.01 1248.39 79.42 C 1239.63 79.71 1229.18 80.67 1223.87 88.79 C 1219.99 98.53 1220.31 110.06 1213.57 118.59 C 1207.24 126.81 1191.25 127.50 1187.09 116.91 C 1183.40 108.09 1189.90 99.68 1195.86 93.89 M 1250.95 129.10 C 1240.92 133.73 1230.13 137.30 1221.75 144.77 C 1216.05 151.12 1215.33 160.27 1216.52 168.36 C 1217.44 174.03 1219.55 180.78 1226.12 181.85 C 1235.79 181.92 1243.72 175.53 1251.00 170.01 C 1251.00 156.37 1251.00 142.74 1250.95 129.10 Z" />
<path fill="#000000" opacity="1.00" d=" M 1055.87 77.40 C 1076.51 75.26 1097.54 74.92 1118.17 77.38 C 1118.03 78.80 1117.90 80.22 1117.79 81.64 C 1114.44 83.24 1110.45 84.19 1108.11 87.27 C 1107.76 94.36 1111.57 100.55 1114.11 106.88 C 1121.65 123.55 1128.05 140.72 1135.73 157.32 C 1142.20 146.59 1145.85 134.45 1151.19 123.16 C 1155.34 113.25 1160.74 101.41 1154.97 91.02 C 1152.28 85.51 1145.95 83.94 1141.03 81.14 C 1141.00 80.20 1140.93 78.33 1140.90 77.40 C 1157.08 75.35 1173.60 75.27 1189.85 76.85 C 1190.25 78.23 1190.68 79.61 1191.11 80.99 C 1185.93 83.67 1180.55 86.16 1176.40 90.40 C 1167.92 99.07 1163.55 110.63 1158.46 121.40 C 1144.00 154.58 1129.32 187.66 1114.89 220.86 C 1110.07 232.05 1102.08 243.77 1089.36 246.43 C 1079.68 248.98 1068.52 242.69 1066.26 232.79 C 1062.25 222.23 1072.38 209.15 1083.90 212.09 C 1091.13 214.94 1093.49 223.22 1098.82 228.18 C 1100.89 230.14 1104.11 228.52 1105.38 226.40 C 1111.46 216.55 1115.01 205.43 1119.85 194.96 C 1104.97 163.09 1090.72 130.92 1075.88 99.04 C 1072.24 90.30 1064.93 83.94 1056.12 80.84 C 1056.06 79.98 1055.94 78.26 1055.87 77.40 Z" />
<path fill="#000000" opacity="1.00" d=" M 1265.94 233.78 C 1282.70 229.15 1299.70 225.29 1316.01 219.10 C 1315.96 269.07 1316.09 319.04 1315.90 369.01 C 1316.16 376.64 1315.02 385.84 1321.18 391.72 C 1325.29 393.70 1329.77 395.02 1334.02 396.80 C 1334.02 397.66 1334.03 399.38 1334.04 400.24 C 1316.86 404.25 1299.70 408.30 1283.15 414.46 C 1283.04 408.29 1283.00 402.14 1282.95 395.98 C 1272.61 403.55 1262.11 412.29 1248.82 413.69 C 1230.61 417.84 1211.95 405.67 1204.69 389.24 C 1196.32 369.90 1197.26 347.11 1206.20 328.14 C 1214.43 311.98 1228.93 298.08 1247.00 294.04 C 1258.70 290.70 1271.09 292.16 1282.95 294.03 C 1282.98 280.67 1283.27 267.31 1283.02 253.95 C 1282.91 250.99 1282.36 247.86 1280.55 245.43 C 1276.20 241.82 1271.07 239.50 1266.03 237.08 C 1266.01 236.25 1265.96 234.61 1265.94 233.78 M 1250.14 301.12 C 1240.46 307.59 1236.54 319.44 1234.30 330.30 C 1231.99 345.24 1232.32 360.82 1236.45 375.42 C 1239.50 384.79 1245.60 394.89 1256.01 396.96 C 1265.76 400.31 1275.54 394.88 1283.03 389.10 C 1282.85 368.72 1283.24 348.35 1282.99 327.97 C 1282.87 319.43 1282.31 310.19 1276.75 303.20 C 1269.91 295.89 1258.27 296.55 1250.14 301.12 Z" />
<path fill="#000000" opacity="1.00" d=" M 863.72 227.10 C 867.66 231.15 870.87 235.93 872.82 241.26 C 888.28 281.80 905.11 321.81 920.72 362.30 C 925.43 373.21 928.66 384.85 935.15 394.91 C 938.65 401.68 946.75 402.88 952.97 406.00 C 952.96 407.41 952.97 408.82 952.99 410.24 C 930.67 411.49 908.30 411.01 885.97 411.07 C 881.61 411.54 877.29 410.66 873.71 408.19 C 878.36 403.65 885.13 403.46 890.62 400.54 C 895.05 397.79 893.83 391.76 892.38 387.64 C 887.54 374.45 882.36 361.37 877.63 348.13 C 859.07 347.91 840.51 347.99 821.96 348.00 C 816.95 361.98 809.30 377.54 815.70 392.31 C 819.16 402.37 831.36 401.60 837.22 409.05 C 813.76 412.84 789.59 411.19 765.95 409.85 C 769.43 403.30 777.33 401.99 782.87 397.80 C 796.24 389.75 802.95 374.80 809.17 361.13 C 821.37 329.97 833.54 298.79 845.25 267.45 C 841.92 264.65 838.54 261.94 835.54 258.80 C 842.90 253.18 850.05 247.04 855.37 239.38 C 858.07 235.24 860.69 231.02 863.72 227.10 M 849.37 274.87 C 841.20 296.91 832.41 318.74 824.65 340.93 C 841.23 341.07 857.81 341.05 874.40 340.87 C 866.40 318.75 857.65 296.89 849.37 274.87 Z" />
<path fill="#000000" opacity="1.00" d=" M 999.44 292.52 C 1020.02 288.88 1043.08 297.85 1053.59 316.37 C 1057.64 324.00 1059.16 333.53 1055.62 341.65 C 1052.86 346.51 1048.59 351.46 1042.47 351.47 C 1034.67 352.28 1027.84 346.29 1025.89 339.04 C 1024.17 329.94 1027.36 320.71 1026.40 311.62 C 1023.60 297.66 1005.24 294.58 994.82 301.85 C 984.76 308.86 979.68 321.11 978.93 333.03 C 976.62 351.31 982.35 371.99 998.06 382.91 C 1011.52 393.06 1032.89 393.45 1045.14 381.15 C 1049.40 377.17 1052.29 371.83 1057.10 368.41 C 1059.31 378.98 1052.71 388.62 1046.44 396.41 C 1030.76 415.93 1000.46 419.70 978.99 408.01 C 966.42 401.78 956.78 390.50 951.39 377.67 C 944.83 358.50 946.72 336.13 958.20 319.21 C 967.22 304.87 982.68 294.91 999.44 292.52 Z" />
<path fill="#000000" opacity="1.00" d=" M 1084.15 315.17 C 1101.46 299.36 1125.38 290.39 1148.89 292.14 C 1160.24 293.34 1171.98 301.46 1173.36 313.44 C 1175.19 339.93 1173.15 366.52 1174.10 393.05 C 1174.14 396.17 1175.57 399.01 1176.85 401.79 C 1181.76 399.88 1186.15 397.00 1190.65 394.28 C 1191.45 394.62 1193.05 395.29 1193.85 395.63 C 1186.67 408.69 1170.38 417.38 1155.59 413.49 C 1148.08 411.21 1143.77 403.98 1141.13 397.10 C 1129.94 404.37 1118.22 412.28 1104.54 413.47 C 1091.95 416.15 1076.06 408.54 1074.03 395.01 C 1070.73 383.61 1077.79 372.17 1087.37 366.39 C 1104.01 355.76 1122.92 349.55 1140.93 341.73 C 1141.04 327.70 1141.25 313.65 1140.22 299.65 C 1132.50 299.06 1124.09 298.43 1117.72 303.74 C 1109.52 312.27 1112.45 325.47 1105.88 334.93 C 1101.58 343.79 1088.88 346.66 1081.14 340.84 C 1072.98 333.57 1077.01 321.37 1084.15 315.17 M 1111.30 365.28 C 1105.80 372.30 1106.66 381.91 1107.71 390.19 C 1108.92 394.26 1110.80 399.67 1115.64 400.40 C 1125.40 401.82 1133.14 394.34 1140.89 389.74 C 1141.05 375.84 1140.98 361.95 1141.01 348.05 C 1130.93 353.38 1118.91 356.28 1111.30 365.28 Z" />
<path fill="#000000" opacity="1.00" d=" M 1374.03 299.06 C 1393.64 288.04 1421.05 289.04 1437.30 305.69 C 1448.42 315.59 1453.28 330.39 1453.38 344.97 C 1426.76 345.06 1400.15 344.93 1373.54 345.04 C 1374.61 356.34 1377.42 368.10 1385.32 376.70 C 1396.82 391.11 1420.14 395.07 1435.36 384.36 C 1441.83 379.87 1445.48 372.48 1451.87 367.89 C 1452.71 382.31 1443.29 394.96 1432.77 403.77 C 1413.99 419.15 1384.86 417.10 1366.03 402.95 C 1355.75 394.92 1347.00 383.93 1344.10 370.99 C 1336.26 344.03 1348.85 312.06 1374.03 299.06 M 1384.36 305.33 C 1375.94 314.45 1374.68 327.29 1372.92 338.97 C 1389.34 339.03 1405.77 339.01 1422.20 338.99 C 1421.20 327.34 1422.22 314.06 1414.71 304.25 C 1407.28 294.93 1391.62 296.60 1384.36 305.33 Z" />
<path fill="#000000" opacity="1.00" d=" M 1458.97 308.36 C 1475.55 302.73 1492.76 298.84 1508.87 291.78 C 1508.91 298.21 1508.98 304.65 1509.06 311.08 C 1521.03 303.57 1532.94 294.31 1547.41 292.52 C 1556.14 290.81 1565.89 292.40 1572.94 298.04 C 1577.48 301.57 1579.63 307.10 1582.34 312.01 C 1595.47 302.90 1609.36 292.53 1626.03 292.08 C 1636.60 290.70 1648.54 295.97 1652.89 306.05 C 1655.69 311.23 1656.45 317.20 1656.78 323.01 C 1657.72 345.00 1656.30 367.02 1657.13 389.01 C 1657.72 392.57 1658.16 396.55 1660.35 399.60 C 1664.53 402.36 1669.35 403.94 1673.98 405.80 C 1674.01 406.75 1674.07 408.67 1674.10 409.62 C 1653.11 412.26 1631.90 410.60 1610.83 411.01 C 1610.05 409.36 1609.28 407.70 1608.56 406.04 C 1615.44 403.26 1625.64 400.75 1625.41 391.43 C 1626.76 372.99 1625.76 354.47 1626.10 335.99 C 1625.78 327.63 1627.00 317.14 1620.23 310.77 C 1617.20 307.38 1612.20 307.00 1608.01 306.99 C 1598.13 308.08 1589.67 313.78 1582.23 319.95 C 1583.80 342.61 1582.50 365.34 1583.02 388.03 C 1583.40 391.73 1583.77 395.76 1586.25 398.74 C 1589.80 402.80 1595.26 403.75 1599.98 405.79 C 1600.01 406.75 1600.07 408.66 1600.10 409.62 C 1579.11 412.26 1557.90 410.60 1536.83 411.01 C 1536.04 409.34 1535.26 407.67 1534.55 405.99 C 1539.86 403.45 1547.13 402.89 1550.02 397.03 C 1552.45 390.32 1551.73 383.00 1552.08 376.01 C 1551.93 359.00 1552.40 341.99 1551.86 324.99 C 1551.33 318.30 1548.89 309.18 1541.02 307.98 C 1529.21 304.67 1518.20 312.64 1508.90 318.74 C 1509.18 340.50 1508.77 362.27 1508.98 384.03 C 1509.17 389.21 1509.09 395.23 1512.44 399.53 C 1516.53 402.41 1521.38 403.92 1525.98 405.80 C 1526.01 406.76 1526.07 408.67 1526.10 409.62 C 1505.12 412.26 1483.90 410.60 1462.83 411.01 C 1462.05 409.36 1461.28 407.70 1460.56 406.04 C 1466.51 402.92 1476.18 402.32 1476.95 394.02 C 1479.19 377.80 1477.60 361.32 1478.13 345.00 C 1477.78 336.35 1479.28 326.97 1475.01 319.01 C 1470.55 314.29 1463.50 313.09 1458.97 308.36 Z" />
<path fill="#000000" opacity="1.00" d=" M 1664.86 296.40 C 1685.48 294.21 1706.49 293.99 1727.12 296.34 C 1727.09 297.30 1727.02 299.23 1726.98 300.19 C 1723.43 301.99 1719.77 303.63 1716.21 305.33 C 1716.97 313.44 1720.65 320.78 1723.78 328.17 C 1730.91 344.41 1737.82 360.74 1744.65 377.11 C 1750.52 364.06 1756.18 350.90 1761.78 337.72 C 1764.81 330.29 1766.65 322.21 1765.93 314.16 C 1763.77 305.95 1755.09 303.61 1749.00 299.08 C 1749.39 298.02 1749.79 296.96 1750.22 295.91 C 1766.72 295.05 1783.57 293.62 1799.99 296.23 C 1795.66 304.36 1785.66 307.02 1780.56 314.56 C 1772.42 326.85 1767.21 340.75 1761.15 354.10 C 1749.33 381.23 1737.35 408.30 1725.51 435.42 C 1721.39 444.92 1716.56 454.75 1708.06 461.08 C 1700.10 466.97 1687.70 467.89 1680.28 460.70 C 1673.35 454.59 1671.67 442.31 1678.67 435.68 C 1682.78 431.06 1690.91 428.53 1695.99 433.05 C 1702.32 437.42 1703.35 447.07 1711.59 449.10 C 1717.88 439.07 1723.05 428.33 1727.05 417.19 C 1728.70 411.65 1725.12 406.78 1723.18 401.92 C 1709.38 373.14 1697.10 343.62 1682.94 315.02 C 1679.88 307.19 1672.19 303.37 1665.18 299.78 C 1665.10 298.94 1664.94 297.25 1664.86 296.40 Z" />
<path fill="#000000" opacity="1.00" d=" M 963.65 438.60 C 975.74 435.49 988.93 444.91 991.02 456.98 C 994.18 465.45 989.70 474.77 982.63 479.60 C 978.73 481.37 973.49 482.10 970.23 478.76 C 962.75 472.96 965.32 462.13 963.76 453.99 C 963.73 450.84 961.29 447.88 958.00 447.99 C 953.68 447.95 951.69 452.63 949.69 455.68 C 945.75 464.69 948.14 474.78 949.94 484.01 C 952.34 493.77 954.21 503.64 955.51 513.61 C 963.94 513.91 972.41 513.92 980.86 514.35 C 979.41 518.61 977.85 522.84 976.14 527.00 C 969.42 527.00 962.71 527.01 956.01 527.03 C 956.02 550.35 955.99 573.68 955.87 597.01 C 956.00 604.16 955.33 612.22 959.35 618.59 C 963.60 621.37 968.47 622.97 973.14 624.90 C 972.70 626.33 972.27 627.77 971.85 629.22 C 951.23 630.36 930.54 630.31 909.91 629.94 C 906.96 630.23 905.56 627.30 903.92 625.44 C 909.50 622.72 916.34 621.54 920.05 616.06 C 922.10 611.00 921.64 605.33 922.02 600.03 C 922.17 575.69 921.90 551.35 921.99 527.01 C 915.98 527.00 910.01 527.00 904.04 527.02 C 909.17 522.17 914.95 517.57 917.95 510.99 C 927.55 492.34 931.91 471.24 943.58 453.60 C 948.15 446.49 954.98 439.88 963.65 438.60 Z" />
<path fill="#000000" opacity="1.00" d=" M 1103.28 447.03 C 1107.60 447.34 1108.74 452.20 1110.56 455.38 C 1130.17 504.20 1149.56 553.11 1168.95 602.03 C 1171.91 609.55 1175.94 617.86 1183.96 621.00 C 1191.48 624.26 1203.13 622.17 1204.99 612.94 C 1207.22 594.08 1205.53 574.95 1206.12 556.00 C 1205.62 549.58 1207.48 541.62 1202.72 536.29 C 1198.02 532.62 1192.31 530.63 1187.26 527.52 C 1193.17 522.86 1200.96 522.02 1207.98 519.94 C 1218.49 517.62 1228.74 514.30 1238.86 510.64 C 1238.97 521.15 1239.01 531.66 1239.14 542.18 C 1244.08 530.80 1250.03 518.47 1261.68 512.67 C 1269.95 509.36 1281.57 510.08 1286.88 518.14 C 1294.03 527.35 1289.21 542.89 1277.82 545.96 C 1269.65 547.77 1265.33 539.25 1259.34 535.64 C 1252.72 533.22 1247.00 539.27 1244.87 544.89 C 1239.16 559.20 1240.29 574.93 1239.85 590.00 C 1240.10 598.42 1239.01 607.18 1241.71 615.34 C 1244.60 621.30 1251.47 622.46 1256.98 624.79 C 1257.01 625.75 1257.07 627.67 1257.10 628.63 C 1244.48 630.41 1231.69 630.04 1219.00 630.08 C 1192.33 629.90 1165.66 629.98 1139.00 630.12 C 1130.87 629.93 1122.67 630.19 1114.67 628.70 C 1115.13 627.22 1115.64 625.76 1116.14 624.30 C 1122.06 622.15 1134.85 621.83 1133.59 612.38 C 1129.47 596.92 1122.58 582.33 1117.60 567.13 C 1099.02 566.91 1080.45 567.00 1061.89 566.99 C 1056.95 580.85 1049.08 596.69 1055.72 611.31 C 1059.34 620.50 1069.56 621.70 1076.97 626.36 C 1074.36 628.27 1071.59 630.53 1068.00 629.75 C 1047.69 630.24 1027.29 630.60 1007.01 629.33 C 1007.00 627.90 1007.01 626.48 1007.03 625.06 C 1016.40 620.68 1026.49 616.48 1033.02 608.03 C 1044.36 594.49 1049.93 577.51 1056.43 561.38 C 1065.94 536.60 1075.51 511.86 1085.13 487.13 C 1082.03 483.88 1078.75 480.81 1075.65 477.59 C 1080.39 473.72 1085.32 470.02 1089.57 465.59 C 1094.88 459.98 1097.59 452.27 1103.28 447.03 M 1064.14 560.01 C 1080.87 560.00 1097.61 560.06 1114.35 559.88 C 1106.29 537.79 1097.55 515.95 1089.42 493.89 C 1080.66 515.80 1072.73 538.03 1064.14 560.01 Z" />
<path fill="#000000" opacity="1.00" d=" M 1313.04 511.05 C 1324.85 501.26 1333.15 488.15 1341.82 475.69 C 1342.00 488.45 1341.99 501.21 1342.03 513.97 C 1353.08 513.96 1364.14 514.07 1375.21 514.11 C 1373.73 518.38 1372.26 522.64 1370.80 526.91 C 1361.20 527.01 1351.59 526.99 1342.02 527.04 C 1342.16 550.14 1341.39 573.27 1342.48 596.37 C 1343.29 602.66 1342.67 610.42 1347.84 615.16 C 1352.24 620.42 1360.44 620.11 1365.90 616.79 C 1371.38 613.53 1376.07 609.12 1381.35 605.55 C 1381.36 608.71 1381.69 612.13 1380.00 614.97 C 1373.51 624.66 1362.53 630.07 1351.57 633.00 L 1333.48 633.00 C 1326.87 631.30 1320.68 627.97 1315.76 623.24 C 1310.28 617.62 1308.31 609.63 1308.08 602.01 C 1307.61 577.03 1308.19 552.04 1308.00 527.06 C 1302.24 526.98 1296.50 526.90 1290.80 526.83 C 1298.42 521.88 1306.18 517.06 1313.04 511.05 Z" />
<path fill="#000000" opacity="1.00" d=" M 800.35 517.38 C 814.16 510.58 829.96 509.73 844.98 511.97 C 861.63 514.52 877.09 524.71 885.82 539.13 C 899.01 559.88 897.79 588.67 883.60 608.61 C 874.04 622.07 858.42 629.85 842.53 633.00 L 819.54 633.00 C 804.95 630.32 790.76 623.37 781.32 611.70 C 764.84 592.74 763.56 563.67 774.80 541.79 C 780.50 531.27 789.76 522.82 800.35 517.38 M 824.42 517.47 C 814.76 520.29 809.70 530.00 806.98 538.98 C 802.65 556.61 802.51 575.09 804.83 593.03 C 806.11 602.39 808.20 612.21 814.32 619.71 C 822.34 629.91 839.64 629.67 847.90 619.92 C 856.48 609.28 858.13 595.14 858.87 581.98 C 859.41 565.00 859.05 547.34 852.58 531.37 C 847.99 520.61 835.94 513.86 824.42 517.47 Z" />
<path fill="#000000" opacity="1.00" d=" M 1415.94 512.93 C 1434.16 508.37 1453.08 512.32 1470.74 517.40 C 1471.87 529.77 1471.97 542.19 1471.84 554.60 C 1470.53 554.76 1469.24 554.92 1467.97 555.09 C 1465.08 548.01 1463.18 540.44 1459.00 533.97 C 1452.05 521.80 1437.06 513.73 1423.10 518.06 C 1414.68 520.25 1408.85 530.45 1413.56 538.41 C 1420.23 547.29 1431.59 550.33 1441.30 554.71 C 1453.66 560.12 1467.73 564.52 1475.82 576.12 C 1482.86 584.24 1481.59 596.18 1478.76 605.73 C 1472.68 621.15 1456.87 629.44 1441.54 633.00 L 1415.55 633.00 C 1406.15 631.53 1396.98 628.97 1387.98 625.94 C 1386.99 613.46 1386.59 600.93 1386.60 588.42 C 1386.59 585.35 1387.44 582.37 1388.20 579.43 C 1395.92 586.23 1395.94 597.48 1401.08 605.93 C 1407.78 620.71 1424.83 630.54 1441.03 626.00 C 1450.68 624.82 1458.52 614.20 1455.40 604.62 C 1453.50 598.62 1447.84 595.20 1442.70 592.33 C 1429.71 585.66 1415.33 581.91 1402.90 574.10 C 1396.06 569.99 1390.59 563.34 1388.41 555.65 C 1387.83 549.32 1387.65 542.72 1389.48 536.58 C 1393.53 524.82 1404.36 516.55 1415.94 512.93 Z" />
</g>
</svg>
